<?xml version="1.0" standalone="no"?>
<!DOCTYPE svg PUBLIC "-//W3C//DTD SVG 20010904//EN"
 "http://www.w3.org/TR/2001/REC-SVG-20010904/DTD/svg10.dtd">
<svg version="1.0" xmlns="http://www.w3.org/2000/svg"
 width="159.000000pt" height="102.000000pt" viewBox="0 0 159.000000 102.000000"
 preserveAspectRatio="xMidYMid meet">

<g transform="translate(0.000000,102.000000) scale(0.100000,-0.100000)"
fill="#000000" stroke="none">
<path d="M1024 936 c-13 -33 19 -98 86 -176 39 -45 70 -85 70 -91 0 -5 -9 -18
-19 -28 -23 -23 -30 -22 -163 33 l-86 36 -334 -2 -333 -3 0 -25 0 -25 183 -3
182 -2 -22 -30 -22 -30 -206 0 c-147 0 -209 -3 -218 -12 -17 -17 -15 -45 4
-52 9 -3 101 -6 205 -6 l189 0 0 -30 0 -30 -154 0 c-146 0 -155 -1 -161 -20
-3 -11 -3 -24 0 -30 4 -6 69 -10 165 -10 l159 0 15 -27 14 -28 -86 -10 c-83
-10 -87 -11 -87 -35 l0 -25 145 -6 c145 -5 251 -25 297 -55 12 -7 34 -35 49
-60 30 -51 17 -50 163 -19 73 15 96 16 168 6 90 -13 123 -5 123 28 0 25 -29
48 -70 56 -34 6 -224 -8 -274 -21 l-25 -6 6 85 c8 116 -6 165 -64 218 -34 31
-39 39 -21 34 75 -24 128 -109 128 -209 0 -51 2 -57 18 -52 52 20 128 77 169
128 51 64 49 63 148 78 104 16 124 45 90 128 -22 52 -49 77 -143 134 -62 38
-96 67 -135 115 -61 79 -138 118 -153 79z"/>
<path d="M932 848 c-34 -34 6 -95 83 -128 58 -25 125 -43 133 -35 3 3 -32 44
-78 90 -84 84 -112 99 -138 73z"/>
<path d="M811 161 c-8 -5 -37 -7 -64 -4 -41 5 -52 3 -63 -12 -23 -32 -17 -53
20 -65 41 -13 104 -4 145 21 31 18 31 20 15 44 -17 27 -30 30 -53 16z"/>
</g>
</svg>
